# xmcd
#
# Track frame offsets: 
#        150
#        9393
#        21292
#        32253
#        43909
#        52209
#        63560
#        72610
#        83631
#        95418
#        105798
#        116920
#        126530
#        139274
#        152161
#        161325
#        173056
#        185466
#        197988
#        210967
#        221299
#        233832
#        244776
#        256446
#        268974
#        280340
#        292545
#        303847
#        314216
#        323592
#
# Disc length: 4434 seconds
#
# Revision: 2
# Processed by: cddbd v1.5.2PL0 Copyright (c) Steve Scherf et al.
# Submitted via: ExactAudioCopy v0.99pb5
#
DISCID=b511501e
DTITLE=Porter Wagoner - A Slice Of Life plus Satisfied Mind
DYEAR=2016
DGENRE=Country
TTITLE0=Uncle Pen
TTITLE1=One Way Ticket To The Blues
TTITLE2=My Name Is Mud
TTITLE3=I Thought I Heard You Calling My Name
TTITLE4=Tennessee Border
TTITLE5=I Went Out Of My Way
TTITLE6=Sugarfoot Rag
TTITLE7=Cryin' Loud
TTITLE8=Misery Loves Company
TTITLE9=I Gotta Find Someone (Who Loves Like I Do)
TTITLE10=Take Good Care Of Her
TTITLE11=I Wonder Where You Are Tonight
TTITLE12=A Satisfied Mind
TTITLE13=My Bonfire
TTITLE14=I Like Girls
TTITLE15=Ivory Tower
TTITLE16=Company's Comin'
TTITLE17=Born To Lose
TTITLE18=Midnight
TTITLE19=That's It
TTITLE20=I Guess I'm Crazy
TTITLE21=I'm Stepping Out Tonight
TTITLE22=Living In The Past
TTITLE23=Tricks Of The Trade
TTITLE24=Settin' The Woods On Fire
TTITLE25=I've Enjoyed As Much Of This As I Can Stand
TTITLE26=The Girl Who Didn't Need Love
TTITLE27=Falling Again
TTITLE28=Tell Her Lies And Feed Her Candy
TTITLE29=Ain't It Awful
EXTD=
EXTT0=
EXTT1=
EXTT2=
EXTT3=
EXTT4=
EXTT5=
EXTT6=
EXTT7=
EXTT8=
EXTT9=
EXTT10=
EXTT11=
EXTT12=
EXTT13=
EXTT14=
EXTT15=
EXTT16=
EXTT17=
EXTT18=
EXTT19=
EXTT20=
EXTT21=
EXTT22=
EXTT23=
EXTT24=
EXTT25=
EXTT26=
EXTT27=
EXTT28=
EXTT29=
PLAYORDER=
